<svg id="Capa_1" enable-background="new 0 0 512 512" height="512" viewBox="0 0 512 512" width="512" xmlns="http://www.w3.org/2000/svg"><g><path d="m512 0v322.77l-256 45-256-45v-322.77z" fill="#2ad7f5"/><path d="m512 0v322.77l-256 45v-367.77z" fill="#3ba9ff"/><path d="m333.512 103.613v30h27.418l-98.64 98.636 21.213 21.213 98.641-98.637v27.525h30v-78.737z" fill="#cae8ea"/><path d="m175.964 160.384c-11.274 0-20.799-7.494-20.799-16.364s9.525-16.364 20.799-16.364 20.798 7.494 20.798 16.364h30c0-20.802-15.087-38.445-35.798-44.299v-15.123h-30v15.122c-20.711 5.854-35.799 23.498-35.799 44.3 0 25.565 22.788 46.364 50.799 46.364 11.274 0 20.798 7.494 20.798 16.364s-9.524 16.364-20.798 16.364-20.799-7.494-20.799-16.364h-30c0 20.802 15.088 38.446 35.799 44.3v15.122h30v-15.122c20.711-5.854 35.798-23.498 35.798-44.299 0-25.566-22.788-46.365-50.798-46.365z" fill="#fff"/><path d="m351.24 491.79h-190.48l36.75-99.23h116.98z" fill="#cae8ea"/><path d="m314.49 392.56 36.75 99.23h-95.24v-99.23z" fill="#a7d2db"/><g><path d="m107 482h298v30h-298z" fill="#186a81"/></g><g><g><path d="m0 322.77h512v90h-512z" fill="#186a81"/></g></g><g fill="#00465f"><path d="m256 482h149v30h-149z"/><path d="m256 322.77h256v90h-256z"/></g></g></svg>